<?xml version="1.0" encoding="utf-8"?>
<svg version="1.1" xmlns="http://www.w3.org/2000/svg" xmlns:xlink="http://www.w3.org/1999/xlink" x="0px" y="0px"
	 viewBox="0 0 1645.68 885.84" enable-background="new 0 0 1645.68 885.84" xml:space="preserve">
<path d="M705.464,203.362c6.874,0.208,14.316,1.591,14.316,11.608v90.705c0,9.279-1.307,16.247-3.427,21.512h16.058
	c1.326-6.514,1.95-13.653,1.95-21.322v-90.496c0-9.979,8.654-10.85,15.433-10.642c1.723,0.057,2.329-0.985,2.329-2.727
	c0-2.386-0.795-3.106-2.253-3.143l-44.462-1.42c-1.496-0.057-2.291,0.606-2.291,3.03
	C703.097,202.226,703.722,203.305,705.464,203.362L705.464,203.362z M602.83,200.295c7.12,0.227,15.679,1.913,15.679,12.1v92.239
	c0,8.067,0.985,15.641,2.954,22.534h44.368c-3.427-6.325-5.51-14.505-5.51-24.485v-89.076c0-10.112,8.408-11.267,15.357-11.059
	c1.761,0.057,2.386-0.985,2.386-2.765c0-2.424-0.814-3.143-2.329-3.181l-72.98-2.348c-1.553-0.057-2.386,0.625-2.386,3.087
	C600.368,199.139,601.012,200.238,602.83,200.295L602.83,200.295z M715.065,329.97c-6.173,11.759-17.137,12.934-24.996,12.896
	c-8.559-0.038-16.872-4.412-22.534-12.896h-45.182c7.688,23.045,26.965,37.91,57.491,37.91c30.582,0,46.28-14.448,51.98-37.91
	H715.065L715.065,329.97L715.065,329.97z M757.672,204.801c7.158,0,15.793,1.212,15.793,11.684v110.682h41.887v-29.048
	c38.649,12.176,74.741-11.873,74.741-53.059c0-33.725-30.62-46.47-57.472-46.47h-75.025c-1.553,0-2.386,0.72-2.386,3.238
	C755.191,203.684,755.835,204.801,757.672,204.801L757.672,204.801L757.672,204.801z M850.44,246.31
	c0,26.284-9.639,39.103-24.788,40.94c-0.814,0.095-10.036-0.606-10.32-3.181v-77.241C838.927,206.828,850.44,221.143,850.44,246.31
	L850.44,246.31z M831.125,361.518c-7.158,0-15.793-1.212-15.793-11.684V329.97h-41.887v19.864c0,10.491-8.635,11.684-15.793,11.684
	c-1.818,0-2.462,1.117-2.462,2.954c0,2.519,0.833,3.238,2.405,3.238h73.605c1.553,0,2.386-0.72,2.386-3.238
	C833.587,362.616,832.962,361.518,831.125,361.518L831.125,361.518z M1192.069,362.692c-7.669,0.17-19.599-4.317-26.662-16.058
	c-1.477-2.462-4.545-8.767-8.161-16.683h-44.027c3.238,8.105,5.662,14.24,5.662,14.24c4.601,11.722,15.547,21.265,29.484,24.03
	c8.389,1.666,38.119,0.89,43.44,0.454c2.007-0.322,2.178-1.78,2.443-3.143C1194.493,364.396,1193.812,362.673,1192.069,362.692
	L1192.069,362.692z M1090.59,361.234c-6.476,0.038-13.71-1.117-13.634-11.57v-19.675h-42.512v20.3
	c-0.019,10.131-7.253,11.343-13.104,11.381c-1.477,0.019-2.007,1.079-2.007,2.822c0,2.405,0.682,3.087,1.95,3.087l69.326-0.114
	c1.42,0,2.178-0.72,2.197-3.276C1092.824,362.332,1092.256,361.215,1090.59,361.234L1090.59,361.234z M1022.969,200.56
	c5.965-0.814,11.494-0.587,11.475,9.885v116.723h42.512v-45.504l2.613-0.17c5.397-0.36,13.88,1.591,17.611,9.07
	c1.174,2.367,8.995,21.796,14.903,36.604h43.894c-7.499-16.569-16.797-38.611-19.807-48.136
	c23.121-12.801,25.981-32.362,25.981-50.067c0-33.991-20.773-49.992-64.97-44.216l-75.897,9.695
	c-1.288,0.189-1.988,0.985-1.988,3.484C1019.314,199.745,1021.473,200.768,1022.969,200.56L1022.969,200.56z M1079.399,195.939
	l5.056-0.682c10.415-1.382,36.642,1.761,36.301,32.533c-0.284,25.545-11.021,40.978-26.227,42.133
	c-9.298,0.701-17.081-1.723-17.554-8.256v-62.49C1076.975,196.81,1077.543,196.185,1079.399,195.939L1079.399,195.939z
	 M884.507,204.915c7.556,0,15.982,0.625,15.982,10.604v111.629h41.546v-46.792c0.303-0.038,0.682-0.057,1.136-0.057
	c3.73-0.038,14.316-0.947,20.262,1.439c9.923,4.014,14.562,18.842,16.74,27.458c0.379,1.477,0.89,1.799,1.856,1.799l1.761-0.019
	c0.852-0.057,1.174-0.682,1.174-1.723v-69.496c0-1.06,0.038-2.064-1.155-2.045l-2.121,0.057c-0.72,0.019-1.06,0.549-1.382,1.761
	c-0.985,3.73-5.757,25.261-17.705,30.734c-3.314,1.515-16.607,2.803-19.429,2.84c-0.435,0-0.795,0.038-1.117,0.038v-66.372
	c0-0.682,0.189-0.871,0.833-0.89l25.299-0.663c9.866-0.265,20.262,4.469,24.238,9.033c6.609,7.593,12.384,23.935,13.142,26.435
	c0.303,1.004,1.023,1.079,1.591,0.966l2.064-0.72c0.795-0.341,0.587-1.685,0.435-2.575l-4.62-39.596
	c0-2.651-0.833-3.977-4.696-3.863l-116.609,3.617c-1.648,0.057-2.518,0.757-2.518,3.162
	C881.212,203.4,881.609,204.915,884.507,204.915L884.507,204.915z M1013.974,315.522c-0.738-0.17-2.14-0.265-2.992,1.875
	c-0.492,1.231-2.348,5.189-4.734,9.752h7.802c0.587-3.238,1.136-6.192,1.61-8.673
	C1016.114,316.317,1014.864,315.73,1013.974,315.522L1013.974,315.522z M996.931,342.354c-3.73,4.583-13.217,15.092-24.371,15.471
	c-2.462,0.076-17.27,0.606-21.057,0.095c-7.556-1.023-9.449-2.954-9.449-13.009V329.97h-41.546v20.508
	c0,9.979-9.127,11.135-16.702,11.153c-1.913,0-2.594,1.06-2.594,2.803c0,2.386,0.871,3.409,2.518,3.409l122.404-0.038
	c1.269,0,1.875-1.363,2.045-2.784c1.004-8.976,3.295-23.348,5.359-35.07h-8.805C1002.233,334.572,999.374,339.344,996.931,342.354
	L996.931,342.354z M1183.719,538.326c5.965,13.975,15.263,26.189,26.908,35.619v-35.619H1183.719z M1210.608,430.238
	c-20.906,16.948-34.275,42.834-34.275,71.844c0,6.211,0.625,12.252,1.78,18.122h32.495V430.238z M1359.258,520.204
	c1.155-5.851,1.78-11.911,1.78-18.122c0-51.052-41.357-92.428-92.352-92.428c-3.825,0-7.594,0.265-11.305,0.72v109.83
	L1359.258,520.204L1359.258,520.204z M1257.38,593.809c3.712,0.454,7.48,0.72,11.305,0.72c38.156,0,70.897-23.159,84.986-56.203
	h-96.291V593.809z M1562.766,405.942h-26.227v6.628c0.473-0.057,0.985-0.076,1.572-0.076h7.575v22.402
	c0,0.303-0.038,0.625-0.133,0.947h7.442c-0.057-0.36-0.076-0.682-0.076-0.985v-22.364h8.199c0.625,0,1.193,0.057,1.647,0.17
	L1562.766,405.942L1562.766,405.942z M1598.934,434.896v-28.954h-8.616l-7.025,19.883l-6.779-19.883h-8.616v28.954
	c0,0.303-0.019,0.625-0.038,0.947h7.025c-0.057-0.36-0.076-0.682-0.076-0.985v-13.464l5.056,14.448h6.874l5.302-14.373v13.369
	c0,0.322-0.019,0.663-0.038,0.985h6.988C1598.953,435.502,1598.934,435.199,1598.934,434.896L1598.934,434.896z M504.323,277.536
	v-54.271c-2.386-3.939-3.465-7.972-3.333-12.119c0.133-4.336,1.25-8.067,3.333-11.116v-20.053
	c-22.799,4.374-35.638,19.22-35.411,39.747C469.178,243.734,480.123,261.288,504.323,277.536L504.323,277.536z M454.9,295.771
	c2.878,7.84,5.757,19.788,8.256,31.377h23.045c-8.313-8.086-16.702-18.804-24.636-32.987c-1.363-2.443-1.572-3.352-3.427-3.427
	c-0.53-0.019-1.288,0.265-2.045,0.53c-1.25,0.568-1.969,1.136-1.723,2.67C454.445,294.54,454.805,295.165,454.9,295.771
	L454.9,295.771z M566.415,329.97c0,0.265,0.019,0.549,0.019,0.814c-0.189,15.66-15.016,23.954-36.433,20.091
	c-6.06-1.098-13.312-3.2-21.19-7.215v26.17c6.969,0.53,13.975,0.663,21.417,0.663c32.381,0,60.672-13.975,66.826-40.524H566.415
	L566.415,329.97z M504.323,341.161c-4.904-2.897-9.979-6.571-15.111-11.21h-25.45c2.405,11.381,4.412,22.08,5.681,27.761
	c0.644,2.443,4.336,5.643,8.294,6.741c9.392,2.594,18.027,4.109,26.586,4.961V341.161L504.323,341.161z M181.858,486.156
	c-39.482-11.627-54.366-24.333-53.722-41.489c0.682-17.933,14.6-29.976,44.292-30.184c22.004-0.152,53.874,21.436,65.122,51.923
	c0.625,2.083,1.193,3.276,2.746,3.219c0.511-0.019,1.269-0.341,2.045-0.663c1.288-0.341,1.515-0.947,1.458-2.159
	c-0.019-0.606-0.057-1.193-0.095-1.799c-3.03-14.543-7.745-43.932-9.052-55.578c-0.417-3.484-0.985-4.639-3.03-4.62
	c-0.776,0-1.78,0.284-3.314,0.587c-2.537,0.587-6.154,0.89-9.506,0.89c-1.818,0-3.371,0.019-4.942-0.284
	c-10.036-2.613-29.238-6.135-41.584-6.135c-50.863,0-80.858,27.003-82.846,67.489c-2.14,43.421,21.871,64.686,72.166,81.653
	c30.828,10.358,46.204,28.423,45.92,46.242c-0.303,20.3-16.475,34.578-42.493,37.361c-19.864,2.14-58.456-16.266-83.111-65.519
	c-0.909-2.443-1.666-3.825-3.693-3.768c-0.587,0.019-1.401,0.398-2.234,0.776c-1.363,0.757-2.14,1.477-1.913,3.257l0.568,2.102
	c6.249,18.652,12.309,58.513,15.092,72.677c0.682,2.897,2.159,5.018,6.495,6.571c16.247,7.328,43.307,4.488,65.993,1.856
	c60.066-6.95,88.944-37.248,89.095-82.77C251.467,524.313,225.733,499.033,181.858,486.156L181.858,486.156z M652.178,465.061
	c-29.787-10.396-40.751-20.584-40.277-33.12c0.511-13.255,10.888-20.47,33.65-20.47c17.668,0,41.622,19.997,50.295,43.345
	c0.473,1.591,0.909,2.5,2.178,2.537c0.417,0.019,1.042-0.189,1.685-0.398c1.042-0.189,1.25-0.644,1.231-1.553
	c-0.019-0.454-0.019-0.89-0.038-1.344c-2.216-11.059-5.965-35.051-6.855-44.084c-0.284-2.708-0.738-3.636-2.424-3.693
	c-0.644-0.019-1.477,0.17-2.727,0.341c-2.102,0.379-5.037,0.473-7.783,0.36c-1.477-0.057-2.746-0.114-4.014-0.398
	c-8.048-2.367-21.833-5.7-31.548-6.192c-38.687-2.083-60.35,16.512-61.486,46.11c-1.174,30.866,15.793,47.511,52.283,62.225
	c23.121,9.317,34.691,22.837,34.218,35.146c-0.53,13.861-12.933,22.345-32.192,22.307c-14.354-0.038-41.527-15.603-55.862-48.193
	c-0.492-1.61-0.947-2.537-2.424-2.556c-0.417-0.019-1.041,0.208-1.666,0.417c-1.042,0.436-1.647,0.89-1.61,2.026l0.265,1.382
	c3.219,12.214,6.874,35.562,7.859,44.462c0.284,1.837,1.174,3.2,4.166,4.355c11.172,5.302,30.885,9.866,47.132,9.847
	c44.917-0.095,68.19-18.52,69.401-50.219C706.847,496.609,686.509,476.991,652.178,465.061L652.178,465.061z M481.751,580.251
	c-14.676-1.818-20.489-5.435-20.451-12.346c0.019-1.723,0.454-3.977,1.326-6.268c2.575-8.01,5.132-15.982,7.707-23.935
	c12.346-0.89,22.667-1.742,33.972-2.519v-10.85c-10.245,0.663-19.201,1.363-30.45,2.102c7.196-22.08,12.119-37.854,19.296-59.441
	c3.996,11.854,7.537,21.739,11.135,31.775V399.22c-3.693,0.246-5.245,1.742-6.438,5.264
	c-17.137,51.147-34.294,103.543-51.488,157.512c-3.446,10.983-9.998,18.501-21.455,23.311c-0.189-0.038-0.379-0.076-0.568-0.095
	c-10.491-0.208-13.047-1.079-13.009-7.915V419.633c0.038-6.817,3.484-8.124,13.975-9.695c1.117-0.265,2.064-0.757,2.083-3.011
	s-0.549-2.405-2.234-2.386c-15.982,0.057-35.392-0.057-51.374,0c-3.56,0.019-3.939,2.178-4.715,5.037
	c-10.282,42.001-18.842,80.782-29.105,124.809c-11.949-41.565-22.174-80.138-34.123-124.241c-0.739-2.727-1.477-5.605-4.09-5.605
	c-16.285,0.076-32.589-0.095-48.874,0c-1.685,0-2.253,0.966-2.253,3.56c0,2.594,0.928,3.162,2.045,3.427
	c10.472,2.481,14.979,10.036,14.922,23.348c-0.208,50.408,0.227,103.07,0,153.497c-0.057,12.176-5.264,21.72-15.736,27.041
	c-1.117,0.549-2.064,1.344-2.064,3.939c-0.019,2.594,0.549,3.03,2.234,2.632c14.183-3.39,31.737-6.76,45.939-9.885
	c1.685-0.36,2.253-1.042,2.253-3.522c0.019-2.481-0.909-2.84-2.045-2.878c-10.263-0.549-17.705-6.987-17.705-19.391V457.885
	c0-1.685,0.701-2.537,1.079-2.556c0.379-0.019,0.928,0.814,1.288,2.197c14.108,53.93,24.844,90.383,38.914,140.564
	c2.026,6.685,3.333,7.537,8.559,6.647c5.056-0.833,6.931-1.685,8.654-9.411c11.684-51.639,23.367-101.82,35.051-150.733
	c0.189-1.042,1.685-1.098,1.685-0.076v137.364c-0.038,6.741-3.427,8.957-12.971,11.665c-1.136,0.436-2.064,1.098-2.083,3.446
	c-0.019,2.367,0.549,2.803,2.234,2.537c19.845-3.03,39.709-5.795,59.574-8.332c0.549,0.227,1.382,0.208,2.594,0.076
	c17.346-1.931,38.422-3.711,55.805-5.34c2.594-0.246,3.465-0.568,3.484-2.765C484.345,581.235,483.702,580.554,481.751,580.251
	L481.751,580.251z M849.077,566.541c-11.134-1.647-14.316-2.821-14.316-8.881c-0.076-46.754-0.17-93.526-0.246-140.28
	c0-6.079,3.162-7.196,14.24-8.521c1.193-0.227,2.178-0.663,2.178-2.708c0-2.026-0.606-2.594-2.386-2.594
	c-21.833-0.019-41.906,0-63.758,0c-1.78,0-2.367,0.53-2.367,2.556c0,2.007,0.985,2.462,2.178,2.689
	c10.093,1.117,13.274,2.689,13.274,8.521c0.019,20.603,0.038,41.205,0.057,61.827c-15.338-0.076-25.356-0.076-40.694-0.038
	c0-20.603,0.019-41.186,0.019-61.789c0-5.813,3.162-7.385,13.274-8.502c1.193-0.227,2.178-0.682,2.178-2.689
	s-0.587-2.556-2.367-2.556c-21.833,0-41.906-0.019-63.758,0c-1.78,0-2.367,0.568-2.386,2.575c0,2.026,0.985,2.481,2.178,2.689
	c11.078,1.344,14.259,2.443,14.24,8.502c-0.057,46.697-0.133,93.375-0.189,140.072c-0.019,6.06-3.181,7.234-14.316,8.824
	c-1.193,0.246-2.197,0.72-2.197,2.746s0.587,2.462,2.386,2.424c21.928-0.511,42.095-0.776,64.024-0.814
	c1.799,0,2.386-0.454,2.386-2.462s-0.985-2.462-2.197-2.689c-10.131-1.098-13.312-2.632-13.312-8.464
	c0.019-22.08,0.019-44.178,0.019-66.258c15.338-0.057,25.375-0.038,40.713,0.057c0.019,22.099,0.038,44.197,0.057,66.296
	c0,5.832-3.162,7.347-13.312,8.427c-1.193,0.227-2.197,0.663-2.178,2.67c0,2.026,0.606,2.462,2.386,2.481
	c21.928,0.114,42.095,0.473,64.023,1.079c1.78,0.057,2.386-0.379,2.386-2.405C851.254,567.279,850.27,566.806,849.077,566.541
	L849.077,566.541z M591.809,571.71c-9.089-0.625-15.338-3.73-17.686-9.657c-20.508-51.336-40.959-103.695-61.354-157.607
	c-1.004-2.575-2.102-4.071-3.958-4.772v111.686c1.401,3.958,2.84,8.067,4.336,12.422c-1.477,0.076-2.935,0.17-4.336,0.246v10.813
	c2.575-0.17,5.207-0.341,7.953-0.511c3.977,11.475,7.934,22.894,11.911,34.256c0.417,0.909,0.417,1.629,0.417,2.348
	c-0.019,2.859-3.049,3.787-11.267,5.643c-3.03,0.72-3.465,1.723-3.484,3.636c-0.019,1.666,0.644,2.348,2.575,2.178
	c24.882-2.064,49.765-3.844,74.647-5.34c1.95-0.114,2.386-0.833,2.405-2.935C593.986,572.506,593.551,571.843,591.809,571.71
	L591.809,571.71z M1561.175,621.342c8.824,0,15.963,7.158,15.963,15.982c0,8.824-7.158,15.982-15.963,15.982
	c-8.824,0-15.963-7.158-15.963-15.982C1545.212,628.5,1552.351,621.342,1561.175,621.342z M1453.371,485.191
	c-39.217-14.865-53.306-27.931-53.097-44.008c0.227-16.759,12.801-27.798,41.527-27.514c22.591,0.208,61.107,23.159,71.655,55.767
	c0.549,2.253,1.136,3.541,2.935,3.636c0.606,0.038,1.515-0.246,2.424-0.53c1.534-0.246,1.837-0.871,1.875-2.14
	c0.019-0.644,0.019-1.269,0.038-1.913c-2.424-15.622-5.662-46.829-6.306-59.081c-0.208-3.655-0.776-4.867-3.125-4.886
	c-0.871,0-2.064,0.284-3.825,0.587c-2.935,0.587-7.006,0.871-10.756,0.852c-2.007-0.019-3.73-0.019-5.435-0.322
	c-10.699-2.727-37.532-6.268-50.049-6.268c-48.06,0-73.492,24.219-74.382,60.596c-0.966,39.084,20.186,61.448,67.735,85.1
	c31.983,15.888,49.253,37.778,49.518,56.449c0.322,21.303-16.872,31.851-43.838,27.723c-19.542-2.992-56.468-30.412-68-76.256
	c-0.284-2.197-0.663-3.465-2.462-3.636c-0.511-0.057-1.326,0.17-2.121,0.398c-1.363,0.473-2.197,1.004-2.367,2.519
	c-0.076,0.606,0.114,1.25,0.038,1.856c1.515,16.588,1.307,48.761,0.701,61.202c-0.019,2.575,0.814,4.639,4.355,6.817
	c13.161,9.582,45.39,20.792,67.527,24.447c64.535,10.661,97.995-13.767,96.405-64.27
	C1532.865,534.387,1501.469,503.35,1453.371,485.191L1453.371,485.191z M1199.511,588.185c-4.658,0-12.119-3.749-20.963-18.141
	c-12.29-20.054-37.816-63.171-43.553-79.059c18.501-5.378,27.439-19.391,27.439-44.14c0-27.325-20.622-43.288-52.965-43.288h-80.176
	c-1.269,0-2.556,1.023-2.556,3.125c0,2.102,1.06,2.575,2.348,2.803c11.911,1.401,15.319,2.575,15.319,8.881V565.14
	c0,6.306-3.409,7.271-15.319,7.953c-1.269,0.151-2.348,0.568-2.348,2.67c0,2.102,0.644,2.613,2.556,2.727l70.405,4.223
	c1.913,0.114,2.556-0.303,2.556-2.405c0-2.102-1.06-2.632-2.329-2.954c-10.85-1.818-14.24-3.655-14.24-9.733v-72.431
	c0,0,8.995-0.757,13.672,9.089c9.127,19.164,23.046,44.595,33.517,63.133c8.446,15.016,26.094,23.576,47.019,25.469
	c8.067,0.738,10.907,0.72,18.217,0.265c1.288-0.114,3.2-0.511,3.636-2.537C1202.125,588.583,1200.799,588.185,1199.511,588.185
	L1199.511,588.185z M1101.384,483.751c-8.938,0-15.736-1.875-15.736-9.582v-61.202c0,0,5.529-0.473,11.703-0.473
	c14.259,0,25.943,13.539,25.943,33.858C1123.274,469.284,1114.355,483.751,1101.384,483.751L1101.384,483.751z M991.099,486.497
	c-0.909-0.057-2.272-0.284-2.272-0.284s1.875-0.227,2.272-0.208c18.444,0.189,31.643-17.478,31.529-40.24
	c-0.133-27.477-19.41-42.228-49.499-42.209H898.5c-1.193,0-2.367,0.568-2.367,2.613c0,2.026,1.004,2.481,2.178,2.708
	c11.097,1.382,14.448,2.519,14.467,8.635c0.133,47.076-0.133,94.132,0,141.208c0.019,6.116-2.973,7.12-14.089,8.143
	c-1.193,0.189-2.178,0.625-2.178,2.651c0,2.026,0.606,2.5,2.386,2.556c26.037,0.795,52.075,1.95,78.093,3.446
	c36.358,2.197,55.142-10.756,54.972-44.955C1031.831,507.195,1013.898,486.706,991.099,486.497L991.099,486.497z M951.238,412.419
	c0,0,4.904-0.436,10.642-0.417c12.479,0.019,24.201,13.464,24.295,33.574c0.095,22.193-7.783,36.509-20.262,36.168
	c-2.386-0.057-14.657-1.269-14.657-1.269v-68.057H951.238z M967.807,565.329c-4.374-0.227-16.55-3.768-16.569-9.695v-65.103
	c0,0,1.212,0.038,2.803,0.076c3.371,0.095,8.73,0.227,11.703,1.004c18.652,4.185,28.045,18.444,28.12,38.592
	C993.996,559.193,981.915,566.067,967.807,565.329L967.807,565.329L967.807,565.329z M1567.743,726.518
	c-1.744-0.526-265.534-83.616-755.171-83.616s-753.427,83.09-755.171,83.616c28.51-8.806,278.807-104.152,755.171-104.152
	S1539.233,717.712,1567.743,726.518z M361.866,703.573v52.986h-50.827c-9.441,0-16.505-9.671-16.505-16.913v-29.369l-6.852-6.704
	h28.67l-1.135,6.352v33.754c0,1.719,1.333,3.439,2.666,3.439h23.6v-43.545H361.866z M452.703,742.761v-32.485l-6.852-6.704h28.866
	l-1.243,6.592v32.874l1.038,3.972h26.153l5.27,9.754c0,0-55.701,0-56.391,0C451.816,752.684,452.703,747.307,452.703,742.761z
	 M744.219,756.764c-0.238,0-25.731,0-25.731,0c2.273-4.081,3.164-9.486,3.164-14.031v-32.457l-6.852-6.704h28.67l-1.047,5.858
	v32.409C742.422,746.664,742.965,754.156,744.219,756.764z M613.625,713.475v28.364c0,4.825,0.543,12.317,1.798,14.925
	c-0.238,0-25.731,0-25.731,0c2.273-4.081,3.163-9.455,3.163-14v-29.289h-21.611l6.079-9.903h60.993l-7.387,11.885l-1.239-1.982
	H613.625z M1167.772,713.475v28.364c0,4.825,0.543,12.317,1.798,14.925c-0.238,0-25.731,0-25.731,0
	c2.273-4.081,3.163-9.455,3.163-14v-29.289h-21.611l6.079-9.903h60.993l-7.387,11.885l-1.239-1.982H1167.772z M914.301,741.839
	c0,4.825,0.475,12.317,1.729,14.925c-0.231,0-25.731,0-25.731,0c2.273-4.081,3.173-9.477,3.173-14.023v-10.09l-14.367,24.112
	h-19.131l2.25-3.668l-12.665-22.046v10.788c0,9.25,0.545,12.317,1.799,14.925c-0.238,0-19.194,0-19.194,0
	c2.273-4.081,3.164-9.486,3.164-14.031v-32.457l-6.852-6.704h21.853l20.386,35.487l21.77-35.487h25.776l-3.96,4.396V741.839z
	 M1330.357,756.764c0,0-56.142,0-59.086,0c1.111-1.792,2.945-6.578,2.945-14.148v-32.351l-6.672-6.692h62.623l-8.731,13.945
	l-3.239-5.282h-23.062v12.387h23.764l4.602,8.01h-28.366v14.577h29.918L1330.357,756.764z M1056.88,745.627l-24.064-42.055h-22.267
	l3.71,5.088l-18.751,30.988c-3.912,6.465-9.986,14.578-12.617,17.115h13.57c0,0,1.904-4.223,4.612-8.826
	c0,0,4.289-7.292,4.289-7.292h26.906l3.058,5.629c2.941,5.413,4.085,8.851,4.204,10.489c0.38,0,24.849,0,25.142,0
	C1064.169,756.244,1061.184,753.15,1056.88,745.627z M1010.068,732.643l9.278-15.775l8.571,15.775H1010.068z M595.293,242.806
	c-0.511,0.265-1.894,0.511-2.272,0.473c-1.155-0.095-1.553-1.307-2.026-2.708c-8.427-24.636-33.782-45.466-54.215-48.685
	c-12.513-1.972-21.78-0.562-27.745,3.482v-16.093c8.34-1.022,17.814-0.759,28.333,1.004c9.979,1.685,28.063,7.499,35.79,10.832
	c1.212,0.417,2.462,0.871,3.844,1.098c2.556,0.398,3.787,0.341,5.7,0.189c1.155-0.057,2.632-0.625,4.223-0.303
	c1.515,0.303,2.329,1.458,2.632,4.204c0.966,9.165,3.939,33.858,5.927,43.553C595.899,241.86,596.05,242.39,595.293,242.806z
	 M598.285,318.249c0.019,3.105-0.208,6.06-0.682,8.9h-31.434c-1.799-12.422-13.71-24.106-35.543-34.767
	c-8.041-3.924-15.213-7.835-21.591-11.801v-51.332c7.237,7.45,19.538,14.657,37.706,21.928
	C580.655,264.697,598.001,289.446,598.285,318.249z"/>
</svg>